<svg height="496pt" viewBox="0 -16 496 495" width="496pt" xmlns="http://www.w3.org/2000/svg"><path d="m456 8.5h-416c-17.671875 0-32 14.328125-32 32v288c0 17.671875 14.328125 32 32 32h296l96 96-24-96h48c17.671875 0 32-14.328125 32-32v-288c0-17.671875-14.328125-32-32-32zm-400 80" fill="#57a4ff"/><g fill="#004fac"><path d="m456 .5h-416c-22.082031.027344-39.9726562 17.917969-40 40v288c.0273438 22.082031 17.917969 39.972656 40 40h292.6875l93.65625 93.65625c2.542969 2.539062 6.464844 3.070312 9.59375 1.300781 3.125-1.769531 4.691406-5.40625 3.824219-8.894531l-21.515625-86.0625h37.753906c22.082031-.027344 39.972656-17.917969 40-40v-288c-.027344-22.082031-17.917969-39.972656-40-40zm24 328c0 13.253906-10.746094 24-24 24h-48c-2.460938 0-4.789062 1.136719-6.304688 3.074219-1.515624 1.941406-2.050781 4.472656-1.457031 6.863281l16.992188 68-75.574219-75.578125c-1.496094-1.503906-3.53125-2.355469-5.65625-2.359375h-296c-13.253906 0-24-10.746094-24-24v-288c0-13.253906 10.746094-24 24-24h416c13.253906 0 24 10.746094 24 24zm0 0"/><path d="m440 80.5h-384c-4.417969 0-8 3.582031-8 8s3.582031 8 8 8h384c4.417969 0 8-3.582031 8-8s-3.582031-8-8-8zm0 0"/><path d="m56 160.5h104c4.417969 0 8-3.582031 8-8s-3.582031-8-8-8h-104c-4.417969 0-8 3.582031-8 8s3.582031 8 8 8zm0 0"/><path d="m248 160.5c4.417969 0 8-3.582031 8-8s-3.582031-8-8-8h-56c-4.417969 0-8 3.582031-8 8s3.582031 8 8 8zm0 0"/><path d="m440 144.5h-160c-4.417969 0-8 3.582031-8 8s3.582031 8 8 8h160c4.417969 0 8-3.582031 8-8s-3.582031-8-8-8zm0 0"/><path d="m440 208.5h-384c-4.417969 0-8 3.582031-8 8s3.582031 8 8 8h384c4.417969 0 8-3.582031 8-8s-3.582031-8-8-8zm0 0"/><path d="m184 272.5h-128c-4.417969 0-8 3.582031-8 8s3.582031 8 8 8h128c4.417969 0 8-3.582031 8-8s-3.582031-8-8-8zm0 0"/><path d="m280 272.5h-64c-4.417969 0-8 3.582031-8 8s3.582031 8 8 8h64c4.417969 0 8-3.582031 8-8s-3.582031-8-8-8zm0 0"/></g></svg>